<svg data-v-0dd9719b="" version="1.0" xmlns="http://www.w3.org/2000/svg" xmlns:xlink="http://www.w3.org/1999/xlink" width="100%" height="100%" viewBox="0 0 340.000000 250.000000" preserveAspectRatio="xMidYMid meet" color-interpolation-filters="sRGB" style="margin: auto;"> <rect data-v-0dd9719b="" x="0" y="0" width="100%" height="100%" fill="#fff" fill-opacity="1" class="background"></rect> <rect data-v-0dd9719b="" x="0" y="0" width="100%" height="100%" fill="url(#watermark)" fill-opacity="1" class="watermarklayer"></rect> <g data-v-0dd9719b="" fill="#333" class="icon-text-wrapper icon-svg-group iconsvg" transform="translate(48.875,95)"><g class="iconsvg-imagesvg" transform="translate(0,0)"><g><rect fill="#333" fill-opacity="0" stroke-width="2" x="0" y="0" width="60" height="60" class="image-rect"></rect> <svg x="0" y="0" width="60" height="60" filtersec="colorsb5922634578" class="image-svg-svg primary" style="overflow: visible;"><svg xmlns="http://www.w3.org/2000/svg" viewBox="0 -0.00001276313832931919 100 100.00001525878906"><g fill-rule="evenodd"><path d="M100 37v45.69A17.36 17.36 0 0 1 82.69 100H65a25.78 25.78 0 0 1 15.49-46.41c8.83-.16 8.91-10.82 0-10.68A36.46 36.46 0 0 0 50.43 100H38.62A46.69 46.69 0 0 1 100 37z" fill="#71a558"></path><path d="M17.31 0h65.38A17.6 17.6 0 0 1 86 .31C84.15.19 82.33.13 80.49.13A79 79 0 0 0 23 24.8c-7.95 8.51 1.94 15 7.5 8a68.4 68.4 0 0 1 69.09-19 17.12 17.12 0 0 1 .37 3.53v8A57.48 57.48 0 0 0 26.86 100h-9.55A17.36 17.36 0 0 1 0 82.69V17.31A17.36 17.36 0 0 1 17.31 0z" fill="#e1bc48"></path></g></svg></svg> <!----></g></g> <g transform="translate(67,2.293466567993164)"><g data-gra="path-name" fill-rule="" class="tp-name iconsvg-namesvg" transform="translate(0,0)"><g transform="scale(1)"><g><path d="M8.61-29.71L8.61-33.75Q8.61-33.93 8.96-33.75L8.96-33.75Q11.07-33.4 15.12-33.4L15.12-33.4 29.88-33.4Q33.93-33.4 36.04-33.75L36.04-33.75Q36.39-33.93 36.39-33.75L36.39-33.75 36.39-29.71Q36.39-29.53 35.86-29.71L35.86-29.71Q33.75-30.06 29.88-30.06L29.88-30.06 15.12-30.06Q11.25-30.06 9.14-29.71L9.14-29.71Q8.61-29.53 8.61-29.71L8.61-29.71ZM2.99-17.93L2.99-21.97Q4.04-21.62 9.32-21.62L9.32-21.62 34.98-21.62Q40.43-21.62 41.66-21.97L41.66-21.97 41.66-17.93Q40.61-18.28 35.16-18.28L35.16-18.28 9.49-18.28Q4.04-18.28 2.99-17.93L2.99-17.93ZM24.79-15.82L24.79-15.82Q24.79-15.64 24.43-15.29L24.43-15.29Q23.03-14.41 21.45-12.83L21.45-12.83Q20.92-12.3 19.34-10.37L19.34-10.37Q13.71-3.52 11.95-2.46L11.95-2.46Q19.34-2.64 28.3-2.81L28.3-2.81Q31.82-2.99 32.52-2.99L32.52-2.99Q30.06-6.68 26.54-10.37L26.54-10.37 30.23-12.48Q33.93-7.38 40.43 0.53L40.43 0.53 36.39 2.99Q35.86 2.11 34.98 0.88L34.98 0.88Q34.45 0 34.28-0.18L34.28-0.18Q32.52-0.18 28.83 0L28.83 0Q12.66 0.18 7.56 1.58L7.56 1.58 5.98-2.64Q12.83-4.22 19.34-17.75L19.34-17.75Q24.61-16.17 24.79-15.82ZM65.04-36.21L65.04-36.21Q69.08-36.39 70.14-35.51L70.14-35.51Q70.31-35.33 69.96-34.8L69.96-34.8Q68.91-33.4 68.91-30.76L68.91-30.76 80.51-30.76Q83.85-30.76 87.19-31.11L87.19-31.11 87.19-27.07Q84.02-27.42 80.68-27.42L80.68-27.42 68.91-27.42 68.91-22.85 77.52-22.85Q81.39-22.85 84.02-23.2L84.02-23.2Q84.02-23.2 84.02-22.68L84.02-22.68Q83.85-20.21 83.85-17.4L83.85-17.4 83.85 0.53Q83.85 2.64 82.62 3.16L82.62 3.16Q81.91 3.69 76.64 4.22L76.64 4.22Q76.64 2.11 74.88 0L74.88 0Q80.86 0.7 80.33-1.41L80.33-1.41 80.33-19.69 54.84-19.69 54.84-1.58Q55.02 4.22 55.02 4.22L55.02 4.22 50.98 4.22Q51.33 2.11 51.33-1.41L51.33-1.41 51.33-17.4Q51.33-20.04 50.98-22.5L50.98-22.5Q50.98-23.03 50.98-23.2L50.98-23.2Q53.44-22.85 56.43-22.85L56.43-22.85 65.21-22.85 65.21-27.25 54.14-27.25Q48.87-27.25 47.64-26.89L47.64-26.89 47.64-31.11Q48.87-30.76 54.49-30.76L54.49-30.76 65.21-30.76 65.21-33.57Q65.21-35.33 65.04-36.21ZM70.49-19.16L70.49-19.16Q74.88-17.93 74.88-17.75L74.88-17.75Q74.88-17.58 74.53-17.23L74.53-17.23Q72.95-15.82 71.54-13.01L71.54-13.01 73.65-13.01Q74.18-13.01 77.52-13.18L77.52-13.18 77.52-10.02Q77.7-10.2 73.3-10.2L73.3-10.2 68.73-10.2 68.73-6.68 73.65-6.68Q75.06-6.68 77.7-6.86L77.7-6.86 77.7-3.87Q75.06-4.04 73.65-4.04L73.65-4.04 68.73-4.04 68.73-0.88Q68.73 1.41 69.08 3.52L69.08 3.52 65.04 3.52Q65.39 2.29 65.39-0.88L65.39-0.88 65.39-4.04 60.82-4.04Q59.59-4.04 56.43-3.87L56.43-3.87 56.43-6.86Q58.89-6.68 60.82-6.68L60.82-6.68 65.39-6.68 65.39-10.2 61.35-10.2Q60.64-10.2 57.3-10.02L57.3-10.02 57.3-13.18Q59.41-13.01 61.17-13.01L61.17-13.01 68.55-13.01Q70.31-16.35 70.49-19.16ZM60.29-17.93L63.46-19.16Q64.34-17.93 65.39-14.94L65.39-14.94 62.23-13.71Q61.35-16.7 60.29-17.93L60.29-17.93ZM116.54-36.04L116.54-36.04Q120.94-36.04 121.11-35.51L121.11-35.51Q121.11-35.16 120.94-34.8L120.94-34.8Q120.41-33.75 120.41-32.52L120.41-32.52 120.41-25.84 123.05-25.84Q124.63-25.84 127.44-26.02L127.44-26.02Q129.02-26.02 129.55-26.02L129.55-26.02 129.55-22.68Q129.02-22.68 127.09-22.68L127.09-22.68Q124.45-22.85 123.05-22.85L123.05-22.85 120.41-22.85 120.41-12.83 124.28-12.83Q127.79-12.83 131.66-13.18L131.66-13.18 131.66-9.14Q127.79-9.49 124.1-9.49L124.1-9.49 99.84-9.49Q96.5-9.49 92.99-9.14L92.99-9.14 92.99-13.18Q96.86-12.83 99.84-12.83L99.84-12.83 104.06-12.83 104.06-22.85 101.43-22.85Q100.37-22.85 97.91-22.68L97.91-22.68Q95.8-22.68 95.1-22.68L95.1-22.68 95.1-26.19Q98.96-25.84 101.43-25.84L101.43-25.84 104.06-25.84 104.06-33.05Q104.06-33.75 103.89-34.8L103.89-34.8Q103.89-35.51 103.89-35.86L103.89-35.86Q108.11-35.86 108.28-35.33L108.28-35.33Q108.28-34.98 108.11-34.28L108.11-34.28Q107.58-33.4 107.58-32.7L107.58-32.7 107.58-25.84 116.72-25.84 116.72-32.87Q116.72-35.33 116.54-36.04ZM107.58-22.85L107.58-12.83 116.89-12.83 116.89-22.85 107.58-22.85ZM105.82-7.21L105.82-7.21Q109.86-4.75 109.69-4.22L109.69-4.22Q109.69-3.87 108.98-3.69L108.98-3.69Q107.75-3.52 106.7-2.81L106.7-2.81Q101.95 0.18 96.68 4.04L96.68 4.04Q95.8 2.46 93.16 1.05L93.16 1.05Q100.37-1.93 105.82-7.21ZM116.19-4.39L119-7.21Q124.28-4.39 130.96 0.53L130.96 0.53 127.79 4.04Q123.05-0.53 116.19-4.39L116.19-4.39ZM160.14-36.21L160.14-36.21Q163.83-34.98 164.53-34.45L164.53-34.45Q164.53-34.45 164.36-34.28L164.36-34.28Q163.65-33.93 162.6-32.7L162.6-32.7Q162.07-31.99 160.84-30.41L160.84-30.41 168.93-30.41Q171.21-30.41 173.5-30.76L173.5-30.76Q171.39-27.95 169.1-24.43L169.1-24.43Q168.4-23.55 168.05-23.03L168.05-23.03 172.09-23.03Q174.9-23.03 175.78-23.2L175.78-23.2Q175.61-21.97 175.61-20.39L175.61-20.39 175.61-13.89Q175.78-10.9 175.78-10.9L175.78-10.9Q175.08-11.07 172.27-11.07L172.27-11.07 164.53-11.07Q164.36-10.2 164-9.32L164-9.32Q161.02-1.23 151 4.04L151 4.04Q149.59 2.29 147.48 0.88L147.48 0.88Q157.32-1.41 161.37-11.07L161.37-11.07 156.45-11.07Q153.63-11.07 152.93-10.9L152.93-10.9Q153.11-10.9 153.11-13.71L153.11-13.71 153.11-20.39Q153.11-23.2 152.93-23.2L152.93-23.2Q154.86-23.03 156.27-23.03L156.27-23.03 163.83-23.03Q165.76-24.79 167.52-27.6L167.52-27.6 159.43-27.6Q155.57-23.73 154.86-23.2L154.86-23.2Q153.11-24.43 151.17-25.14L151.17-25.14Q156.45-28.48 160.14-36.21ZM142.73-35.51L142.73-35.51Q146.25-35.51 147.48-34.98L147.48-34.98Q147.48-34.98 147.3-34.28L147.3-34.28Q146.78-33.75 146.78-33.4L146.78-33.4Q146.43-31.29 146.43-26.37L146.43-26.37Q149.06-26.37 150.64-26.54L150.64-26.54 150.64-23.2Q148.89-23.38 146.43-23.38L146.43-23.38 146.43-16Q148.54-17.23 151-18.98L151-18.98Q150.64-16.35 151-14.77L151-14.77Q148.36-14.06 146.43-12.66L146.43-12.66 146.43 0.53Q145.55 3.52 139.39 3.87L139.39 3.87Q139.22 1.58 137.99 0L137.99 0Q142.73 0.35 143.09-1.41L143.09-1.41 143.09-11.07Q142.91-10.9 142.03-10.55L142.03-10.55Q139.22-8.96 138.34-8.26L138.34-8.26Q137.29-11.78 136.76-12.66L136.76-12.66Q139.57-13.36 143.09-14.77L143.09-14.77 143.09-23.2 141.5-23.2Q139.04-23.2 137.46-23.03L137.46-23.03 137.46-26.54Q139.22-26.37 141.33-26.37L141.33-26.37 143.09-26.37Q142.91-26.72 142.91-30.76L142.91-30.76Q142.73-34.45 142.73-35.51ZM162.42-20.21L156.45-20.21 156.45-13.89 161.89-13.89Q162.25-17.05 162.42-20.21L162.42-20.21ZM172.09-20.21L165.41-20.21Q165.41-15.47 164.88-13.71L164.88-13.71 172.09-13.71 172.09-20.21ZM168.05-8.61L168.05-8.61Q168.05-8.44 167.87-8.26L167.87-8.26Q167.34-7.38 167.34-5.8L167.34-5.8 167.34-1.23Q167.52 0.18 168.93 0.53L168.93 0.53Q171.91 0.88 172.79 0.18L172.79 0.18Q174.2-0.88 174.2-4.04L174.2-4.04Q175.78-2.64 178.24-1.76L178.24-1.76Q178.07-1.41 177.89-0.88L177.89-0.88Q177.01 2.29 175.25 3.34L175.25 3.34Q172.09 4.57 166.11 3.69L166.11 3.69Q164.18 2.99 164.18 0.53L164.18 0.53Q164.18-5.98 164.18-9.32L164.18-9.32Q168.22-8.96 168.05-8.61Z" transform="translate(-2.990000009536743, 36.24056625366211)"></path></g> <!----> <!----> <!----> <!----> <!----> <!----> <!----></g></g> <g data-gra="path-slogan" fill-rule="" class="tp-slogan iconsvg-slogansvg" fill="#333" transform="translate(29.03000259399414,46.460567474365234)"><!----> <!----> <g transform="scale(1, 1)"><g transform="scale(1)"><path d="M7.83-8.58L4.59-3.47L4.59 0L3.42 0L3.42-3.47L0.19-8.58L1.55-8.58L3.98-4.45L6.47-8.58L7.83-8.58ZM14.53-3.19L14.53-8.58L15.70-8.58L15.70-3.05Q15.56 0.05 12.19 0.14L12.19 0.14Q9.05 0.05 8.91-2.86L8.91-2.86L8.91-8.58L10.08-8.58L10.08-3.19Q10.13-0.84 12.23-0.80L12.23-0.80Q14.53-0.84 14.53-3.19L14.53-3.19ZM18.89-8.58L23.20-1.64L23.20-8.58L24.33-8.58L24.33 0L23.02 0L18.66-6.94L18.61-6.94L18.61 0L17.48 0L17.48-8.58L18.89-8.58ZM27.52-8.58L31.83-1.64L31.83-8.58L32.95-8.58L32.95 0L31.64 0L27.28-6.94L27.23-6.94L27.23 0L26.11 0L26.11-8.58L27.52-8.58ZM40.41 0L39.56-2.48L36.09-2.48L35.20 0L34.03 0L37.27-8.58L38.58-8.58L41.67 0L40.41 0ZM37.83-7.31L36.47-3.52L39.14-3.52L37.88-7.31L37.83-7.31ZM44.11-8.58L48.42-1.64L48.42-8.58L49.55-8.58L49.55 0L48.23 0L43.88-6.94L43.83-6.94L43.83 0L42.70 0L42.70-8.58L44.11-8.58ZM61.08-3.61L58.45-3.61L58.45-4.59L62.20-4.59L62.20 0L61.45 0L61.17-1.08Q60.19 0.09 58.36 0.14L58.36 0.14Q56.63 0.14 55.69-0.75L55.69-0.75Q54.28-2.06 54.33-4.36L54.33-4.36Q54.66-8.63 58.41-8.81L58.41-8.81Q61.59-8.63 62.06-6L62.06-6L60.94-6Q60.47-7.78 58.36-7.83L58.36-7.83Q55.69-7.64 55.55-4.31L55.55-4.31Q55.55-0.75 58.41-0.75L58.41-0.75Q59.44-0.75 60.19-1.31L60.19-1.31Q61.13-2.06 61.08-3.61L61.08-3.61ZM70.78-4.27L70.78-4.27Q70.59-7.64 67.78-7.83L67.78-7.83Q64.92-7.69 64.78-4.27L64.78-4.27Q64.92-0.94 67.78-0.80L67.78-0.80Q70.59-0.98 70.78-4.27ZM71.95-4.27L71.95-4.27Q71.67 0 67.78 0.14L67.78 0.14Q63.84 0 63.56-4.27L63.56-4.27Q63.80-8.72 67.78-8.81L67.78-8.81Q71.67-8.67 71.95-4.27ZM74.72-8.58L79.03-1.64L79.03-8.58L80.16-8.58L80.16 0L78.84 0L74.48-6.94L74.44-6.94L74.44 0L73.31 0L73.31-8.58L74.72-8.58ZM88.36-3.61L85.73-3.61L85.73-4.59L89.48-4.59L89.48 0L88.73 0L88.45-1.08Q87.47 0.09 85.64 0.14L85.64 0.14Q83.91 0.14 82.97-0.75L82.97-0.75Q81.56-2.06 81.61-4.36L81.61-4.36Q81.94-8.63 85.69-8.81L85.69-8.81Q88.88-8.63 89.34-6L89.34-6L88.22-6Q87.75-7.78 85.64-7.83L85.64-7.83Q82.97-7.64 82.83-4.31L82.83-4.31Q82.83-0.75 85.69-0.75L85.69-0.75Q86.72-0.75 87.47-1.31L87.47-1.31Q88.41-2.06 88.36-3.61L88.36-3.61ZM96.05-7.13L96-7.13L94.03 0L92.81 0L90.56-8.58L91.78-8.58L93.42-1.59L93.47-1.59L95.39-8.58L96.66-8.58L98.58-1.59L98.63-1.59L100.22-8.58L101.48-8.58L99.23 0L98.02 0L96.05-7.13ZM108.23 0L107.39-2.48L103.92-2.48L103.03 0L101.86 0L105.09-8.58L106.41-8.58L109.50 0L108.23 0ZM105.66-7.31L104.30-3.52L106.97-3.52L105.70-7.31L105.66-7.31ZM111.94-8.58L116.25-1.64L116.25-8.58L117.38-8.58L117.38 0L116.06 0L111.70-6.94L111.66-6.94L111.66 0L110.53 0L110.53-8.58L111.94-8.58Z" transform="translate(-0.1875, 8.8125)"></path></g></g></g></g></g><defs v-gra="od"></defs></svg>